<svg width="144" height="30" viewBox="0 0 144 30" fill="none" xmlns="http://www.w3.org/2000/svg">
<path d="M0 18.8826C0 16.5361 1.9022 14.6339 4.24869 14.6339H6.72709C7.11817 14.6339 7.4352 14.9509 7.4352 15.342V29.2919C7.4352 29.683 7.11817 30 6.72709 30H4.24869C1.9022 30 0 28.0978 0 25.7513V18.8826Z" fill="#FF0032"/>
<rect x="8.85156" y="14.6339" width="2.12434" height="15.3661" rx="1.06217" fill="#FF0032"/>
<rect x="24.0762" y="14.6339" width="2.12434" height="15.3661" rx="1.06217" fill="#FF0032"/>
<path d="M27.6152 15.342C27.6152 14.9509 27.9323 14.6339 28.3233 14.6339H30.8017C33.1482 14.6339 35.0504 16.5361 35.0504 18.8826V25.7513C35.0504 28.0978 33.1482 30 30.8017 30H28.3233C27.9323 30 27.6152 29.683 27.6152 29.2919V15.342Z" fill="#FF0032"/>
<path fill-rule="evenodd" clip-rule="evenodd" d="M28.4499 16.1209C28.5073 15.6979 28.5367 15.2686 28.5367 14.835C28.5367 9.34159 23.8083 4.53193 17.5255 4.53193C11.2428 4.53193 6.51435 9.34159 6.51435 14.835C6.51435 15.2686 6.54381 15.6979 6.60116 16.1209H2.04C2.00188 15.6971 1.98242 15.2682 1.98242 14.835C1.98242 6.64185 8.94131 0 17.5255 0C26.1098 0 33.0686 6.64185 33.0686 14.835C33.0686 15.2682 33.0492 15.6971 33.0111 16.1209H28.4499Z" fill="#FF0032"/>
<path d="M42.3982 23.3989V8.98058H45.8651L49.9031 16.2611L53.9206 8.98058H57.2652V23.3989H54.7364V12.1416L50.3925 20.0136H49.3321L44.9474 12.1416V23.3989H42.3982ZM63.1737 23.3989V11.3055H58.6666V8.98058H70.2095V11.3055H65.7025V23.3989H63.1737ZM77.274 23.5621C75.7784 23.5621 74.5208 23.2562 73.5011 22.6444C72.4815 22.019 71.7133 21.1556 71.1967 20.0544C70.68 18.9531 70.4217 17.6751 70.4217 16.2203C70.4217 14.7656 70.6868 13.4808 71.2171 12.3659C71.7473 11.2511 72.5222 10.381 73.5419 9.75554C74.5616 9.11654 75.8056 8.79704 77.274 8.79704C78.3616 8.79704 79.3201 8.98058 80.1495 9.34767C80.9788 9.71476 81.6518 10.2382 82.1685 10.918C82.6987 11.5842 83.0386 12.4067 83.1881 13.3856H80.7205C80.5302 12.6922 80.1427 12.1484 79.5581 11.7541C78.9735 11.3598 78.2121 11.1627 77.274 11.1627C76.2543 11.1627 75.4317 11.4006 74.8063 11.8765C74.1809 12.3523 73.7255 12.9642 73.44 13.7119C73.168 14.4597 73.0321 15.2618 73.0321 16.1184C73.0321 17.0021 73.1748 17.8314 73.4604 18.6064C73.7595 19.3814 74.2285 20.0068 74.8675 20.4826C75.5065 20.9585 76.3291 21.1964 77.3352 21.1964C77.9606 21.1964 78.5044 21.108 78.9667 20.9313C79.4425 20.7545 79.8368 20.503 80.1495 20.1767C80.4758 19.8368 80.7001 19.4425 80.8225 18.9939H83.4125C83.2493 19.9592 82.8822 20.7817 82.3112 21.4615C81.7538 22.1413 81.04 22.6648 80.1699 23.0318C79.3133 23.3853 78.348 23.5621 77.274 23.5621ZM89.1659 23.3989L94.6926 8.98058H97.7312L103.238 23.3989H100.484L99.5259 20.7274H92.8775L91.8986 23.3989H89.1659ZM93.6933 18.4229H98.6897L96.2017 11.5502L93.6933 18.4229ZM108.871 23.5417C107.321 23.5417 106.132 23.1406 105.302 22.3385C104.486 21.5363 104.079 20.3127 104.079 18.6676V12.6514H106.567V18.5044C106.567 19.0755 106.641 19.5717 106.791 19.9932C106.954 20.4146 107.206 20.7409 107.546 20.9721C107.899 21.1896 108.341 21.2984 108.871 21.2984C109.442 21.2984 109.891 21.1828 110.217 20.9517C110.557 20.707 110.795 20.3739 110.931 19.9524C111.067 19.5309 111.135 19.0483 111.135 18.5044V12.6514H113.623V18.6676C113.623 20.3535 113.201 21.5907 112.358 22.3792C111.529 23.1542 110.367 23.5417 108.871 23.5417ZM119.966 23.5417C118.878 23.5417 117.981 23.297 117.274 22.8075C116.567 22.3045 116.037 21.6383 115.683 20.8089C115.343 19.9796 115.173 19.0551 115.173 18.0354C115.173 16.9749 115.357 16.03 115.724 15.2007C116.091 14.3577 116.642 13.6983 117.376 13.2225C118.11 12.733 119.028 12.4883 120.129 12.4883C120.537 12.4883 120.931 12.5359 121.312 12.6311C121.706 12.7126 122.073 12.8486 122.413 13.0389C122.767 13.2157 123.059 13.4536 123.29 13.7527V8.98058H125.778V23.3989H123.372L123.331 22.0529C123.073 22.3928 122.767 22.6716 122.413 22.8891C122.073 23.1066 121.693 23.2698 121.271 23.3785C120.85 23.4873 120.415 23.5417 119.966 23.5417ZM120.435 21.2984C121.088 21.2984 121.625 21.1488 122.046 20.8497C122.468 20.537 122.78 20.1291 122.984 19.6261C123.202 19.1095 123.311 18.5656 123.311 17.9946C123.311 17.3964 123.202 16.8525 122.984 16.3631C122.78 15.8737 122.468 15.4794 122.046 15.1803C121.625 14.8812 121.088 14.7316 120.435 14.7316C119.742 14.7316 119.191 14.888 118.783 15.2007C118.389 15.5134 118.097 15.928 117.906 16.4447C117.729 16.9477 117.641 17.4916 117.641 18.0762C117.641 18.5112 117.689 18.9259 117.784 19.3202C117.893 19.7009 118.056 20.0408 118.273 20.3399C118.491 20.639 118.776 20.8769 119.13 21.0537C119.483 21.2168 119.918 21.2984 120.435 21.2984ZM127.78 23.3989V12.6514H130.268V23.3989H127.78ZM129.024 11.4074C128.548 11.4074 128.168 11.2647 127.882 10.9792C127.597 10.6937 127.454 10.3198 127.454 9.85751C127.454 9.40885 127.603 9.04176 127.902 8.75625C128.202 8.45715 128.575 8.30759 129.024 8.30759C129.459 8.30759 129.833 8.45035 130.146 8.73586C130.458 9.02137 130.615 9.39526 130.615 9.85751C130.615 10.3198 130.465 10.6937 130.166 10.9792C129.867 11.2647 129.486 11.4074 129.024 11.4074ZM137.186 23.5417C136.085 23.5417 135.133 23.3174 134.331 22.8687C133.543 22.42 132.931 21.781 132.496 20.9517C132.074 20.1223 131.864 19.1502 131.864 18.0354C131.864 16.9069 132.081 15.9348 132.516 15.1191C132.951 14.2897 133.563 13.6439 134.352 13.1817C135.14 12.7194 136.085 12.4883 137.186 12.4883C138.274 12.4883 139.212 12.7194 140.001 13.1817C140.789 13.6439 141.394 14.2965 141.816 15.1395C142.237 15.9688 142.448 16.9477 142.448 18.0762C142.448 19.1774 142.237 20.1427 141.816 20.9721C141.408 21.7878 140.81 22.42 140.021 22.8687C139.233 23.3174 138.288 23.5417 137.186 23.5417ZM137.166 21.278C137.846 21.278 138.39 21.1284 138.797 20.8293C139.219 20.5302 139.525 20.1359 139.715 19.6465C139.906 19.157 140.001 18.6268 140.001 18.0558C140.001 17.4848 139.906 16.9477 139.715 16.4447C139.525 15.9416 139.219 15.5406 138.797 15.2414C138.39 14.9287 137.846 14.7724 137.166 14.7724C136.486 14.7724 135.936 14.9287 135.514 15.2414C135.093 15.5406 134.787 15.9416 134.596 16.4447C134.406 16.9341 134.311 17.4712 134.311 18.0558C134.311 18.6268 134.406 19.1638 134.596 19.6669C134.8 20.1563 135.106 20.5506 135.514 20.8497C135.936 21.1352 136.486 21.278 137.166 21.278Z" fill="#252422"/>
</svg>
